<svg width="160" height="160" viewBox="0 0 160 160" fill="none" xmlns="http://www.w3.org/2000/svg">
<path d="M160 80C160 35.8588 124.141 0 80 0C35.8588 0 0 35.8588 0 80C0 124.141 35.8588 160 80 160C124.141 160 160 124.141 160 80Z" fill="#FF333F"/>
<path d="M160 80C160 35.8588 124.141 0 80 0V160C124.141 160 160 124.141 160 80Z" fill="#E30613"/>
<path d="M91.7644 100.142H68.3291V125.836H91.7644V100.142Z" fill="#D9A78C"/>
<path d="M94.5882 115.482C94.5882 115.482 116.894 118.777 120.188 122.165C123.012 125.177 129.035 153.694 130.353 160C91.2 160 80 160 80 160V116.706L94.5882 115.482Z" fill="#C0D4DF"/>
<path d="M80 26.6357C91.3882 26.6357 109.365 33.1299 109.365 63.4357C109.365 80.9416 103.624 92.424 101.176 95.5299C98.9176 98.4475 86.0235 104.659 80 104.659C80 74.071 80 26.6357 80 26.6357Z" fill="#EAC0A7"/>
<path d="M115.012 70.6826C115.482 65.8826 113.223 61.5532 109.835 61.0826C106.447 60.612 103.341 64.1885 102.871 68.9885C102.4 73.7885 104.659 78.1179 108.047 78.5885C111.435 79.0591 114.541 75.4826 115.012 70.6826Z" fill="#EAC0A7"/>
<path d="M80 26.6357C68.6117 26.6357 50.6353 33.1299 50.6353 63.4357C50.6353 80.9416 56.3764 92.424 58.8235 95.5299C61.0823 98.4475 73.9764 104.659 80 104.659C80 74.071 80 26.6357 80 26.6357Z" fill="#F2D7BC"/>
<path d="M44.9882 70.6826C44.5176 65.8826 46.7764 61.5532 50.1647 61.0826C53.5529 60.612 56.6588 64.1885 57.1294 68.9885C57.5999 73.7885 55.3411 78.1179 51.9529 78.5885C48.5647 79.0591 45.4588 75.4826 44.9882 70.6826Z" fill="#F2D7BC"/>
<path d="M65.4117 115.482C65.4117 115.482 43.1058 118.777 39.8117 122.165C36.9881 125.177 30.9646 153.694 29.647 160C68.7999 160 79.9999 160 79.9999 160V116.706L65.4117 115.482Z" fill="#CFE1EB"/>
<path d="M79.9995 116.706L68.1407 111.906L65.1289 114.918L71.0583 128L79.9995 116.706Z" fill="white"/>
<path d="M80 116.706L91.8588 111.906L94.8706 114.918L88.9412 128L80 116.706Z" fill="white"/>
<path d="M110.023 61.7416C110.023 61.7416 119.623 17.8828 79.8117 17.8828C39.8117 17.8828 49.7881 60.5181 49.7881 60.5181C49.7881 60.5181 55.2469 57.4122 55.2469 71.4358C57.4117 71.4358 56.2822 71.4358 56.2822 71.4358C56.2822 71.4358 58.2587 62.024 58.8234 53.6475C72.9411 53.6475 85.3646 51.8593 95.8117 43.2005C101.741 43.2005 102.588 50.6358 102.588 56.2828L99.9528 57.3181C99.9528 57.3181 102.494 62.2122 102.682 71.5299C104.47 71.5299 104.47 71.5299 104.47 71.5299C104.47 71.5299 104.188 56.0005 110.023 61.7416Z" fill="#8B5F3C"/>
<path d="M79.9999 93.2713C85.2705 93.2713 89.5999 91.4831 89.5999 89.3184H70.3999C70.3999 91.4831 74.7293 93.2713 79.9999 93.2713Z" fill="white"/>
</svg>
