<svg width="160" height="160" viewBox="0 0 160 160" fill="none" xmlns="http://www.w3.org/2000/svg">
<path d="M160 79.906C160 35.8167 124.141 0 80 0C35.8588 0 0 35.8167 0 79.906C0 123.995 35.8588 159.812 80 159.812C124.141 159.812 160 123.995 160 79.906Z" fill="#FF333F"/>
<path d="M160 79.906C160 35.8167 124.141 0 80 0V159.812C124.141 159.812 160 123.995 160 79.906Z" fill="#E30613"/>
<path d="M115.2 51.7978C115.2 32.5263 99.4822 16.8271 80.188 16.8271C60.7998 16.8271 45.1763 32.5263 45.1763 51.7978C45.1763 71.0692 60.8939 86.7684 80.188 86.7684C99.4822 86.7684 115.2 71.1632 115.2 51.7978Z" fill="#61402F"/>
<path d="M91.8586 126.722L79.9998 160L68.4233 126.722V101.058H91.8586V126.722Z" fill="#EAC8AD"/>
<path d="M80.1879 29.9883C68.7997 29.9883 50.8232 36.3808 50.8232 66.651C50.8232 84.1363 57.5997 92.409 60.1409 95.5112C62.3997 98.4254 74.1644 107.826 80.1879 107.826C80.1879 77.2738 80.1879 29.9883 80.1879 29.9883Z" fill="#F2D7BC"/>
<path d="M45.0819 73.8891C44.6113 69.0947 46.8702 64.7704 50.2584 64.3004C53.6466 63.8303 56.7525 67.4026 57.2231 72.1969C57.6937 76.9913 55.4349 81.3156 52.0466 81.7857C48.7525 82.2557 45.6466 78.6834 45.0819 73.8891Z" fill="#F2D7BC"/>
<path d="M80.0938 29.9883C91.482 29.9883 109.458 36.4748 109.458 66.745C109.458 84.2303 102.682 92.503 100.141 95.6052C97.882 98.5194 86.1173 107.92 80.0938 107.92C80.0938 77.2738 80.0938 29.9883 80.0938 29.9883Z" fill="#EAC0A7"/>
<path d="M115.2 73.8891C115.67 69.0947 113.411 64.7704 110.023 64.3004C106.635 63.8303 103.529 67.4026 103.058 72.1969C102.588 77.0853 104.847 81.3156 108.235 81.7857C111.529 82.2557 114.635 78.6834 115.2 73.8891Z" fill="#EAC0A7"/>
<path d="M79.7178 22.6555C79.1531 22.5615 78.5884 22.5615 78.0237 22.5615C78.0237 22.5615 58.8237 23.9716 53.459 48.9775C50.9178 50.8576 46.2119 58.3782 52.4237 66.7448C53.2707 59.6943 55.906 54.6179 60.3296 52.6438C68.2354 49.1655 71.5296 52.3618 80.7531 45.3112C86.1178 41.1749 88.0943 32.9023 86.8707 28.296C84.706 22.4675 79.2472 22.7495 79.7178 22.6555Z" fill="#61402F"/>
<path d="M85.6467 29.5183C85.6467 29.5183 78.682 55.3702 108.988 66.087C116.141 42.5852 102.964 27.1681 85.6467 29.5183Z" fill="#61402F"/>
<path d="M79.9998 159.999V128.037C79.9998 128.037 71.2468 125.875 69.3645 118.824C68.4233 115.44 68.4233 112.714 68.4233 112.714C68.4233 112.714 49.3174 119.2 45.0821 125.781C41.5056 136.31 40.5645 159.999 40.5645 159.999H79.9998Z" fill="#EAC8AD"/>
<path d="M80 159.999V128.037C80 128.037 88.7529 125.875 90.6353 118.824C91.5765 115.44 91.5765 112.714 91.5765 112.714C91.5765 112.714 110.682 119.2 114.918 125.781C118.494 136.31 119.435 159.999 119.435 159.999H80Z" fill="#EAC8AD"/>
<path d="M80.1879 97.2032C84.6114 97.2032 88.1879 94.477 88.1879 91.0928H72.0938C72.0938 94.477 75.6702 97.2032 80.1879 97.2032Z" fill="white"/>
<path d="M91.1998 16.827C91.1998 10.7165 86.2116 5.82812 80.188 5.82812C74.0704 5.82812 69.1763 10.8105 69.1763 16.827C69.1763 22.9374 74.1645 27.8258 80.188 27.8258C86.2116 27.9198 91.1998 22.9374 91.1998 16.827Z" fill="#61402F"/>
<path d="M79.9994 136.028C70.2112 136.028 62.3053 126.721 62.023 115.064C58.1641 116.663 56.5641 117.227 53.7406 119.013C53.3641 121.363 50.823 127.849 49.5994 137.532C48.3759 147.121 51.1994 160 51.1994 160H79.9994V136.028Z" fill="#90C53F"/>
<path d="M80 136.028C89.7882 136.028 97.6941 126.721 97.9765 115.064C101.835 116.663 103.435 117.227 106.259 119.013C106.635 121.363 109.176 127.849 110.4 137.532C111.624 147.121 108.8 160 108.8 160H80V136.028Z" fill="#5FA63C"/>
</svg>
