<svg width="160" height="160" viewBox="0 0 160 160" fill="none" xmlns="http://www.w3.org/2000/svg">
<path d="M160 79.906C160 35.8167 124.141 0 80 0C35.8588 0 0 35.8167 0 79.906C0 123.995 35.8588 159.812 80 159.812C124.141 159.812 160 123.995 160 79.906Z" fill="#FF333F"/>
<path d="M160 79.906C160 35.8167 124.141 0 80 0V159.812C124.141 159.812 160 123.995 160 79.906Z" fill="#E30613"/>
<path d="M49.2233 65.7112C49.2233 79.0602 41.8822 79.4362 42.3527 88.2728C42.9175 98.0496 50.6351 98.1436 50.6351 104.818C50.6351 111.587 43.5763 119.107 49.788 126.44C77.2704 126.44 79.9998 126.44 79.9998 126.44V44.5596L49.2233 65.7112Z" fill="#461811"/>
<path d="M110.87 65.7112C110.87 79.0602 118.211 79.4362 117.741 88.2728C117.176 98.0496 109.458 98.1436 109.458 104.818C109.458 111.587 116.517 119.107 110.306 126.44C82.8232 126.44 80.0938 126.44 80.0938 126.44V44.5596L110.87 65.7112Z" fill="#461811"/>
<path d="M115.2 51.7978C115.2 32.5263 99.4822 16.8271 80.188 16.8271C60.7998 16.8271 45.1763 32.5263 45.1763 51.7978C45.1763 71.0692 60.8939 86.7684 80.188 86.7684C99.4822 86.7684 115.2 71.1632 115.2 51.7978Z" fill="#461811"/>
<path d="M91.8586 126.722L79.9998 160L68.4233 126.722V101.058H91.8586V126.722Z" fill="#EAC8AD"/>
<path d="M80.1879 29.9883C68.7997 29.9883 50.8232 36.3808 50.8232 66.651C50.8232 84.1363 57.5997 92.409 60.1409 95.5112C62.3997 98.4254 74.1644 107.826 80.1879 107.826C80.1879 77.2738 80.1879 29.9883 80.1879 29.9883Z" fill="#F2D7BC"/>
<path d="M45.1762 73.8891C44.7056 69.0947 46.9644 64.7704 50.3526 64.3004C53.7409 63.8303 56.8468 67.4026 57.3174 72.1969C57.7879 76.9913 55.5291 81.3156 52.1409 81.7857C48.7526 82.2557 45.6468 78.6834 45.1762 73.8891Z" fill="#F2D7BC"/>
<path d="M80.0938 29.9883C91.482 29.9883 109.458 36.4748 109.458 66.745C109.458 84.2303 102.682 92.503 100.141 95.6052C97.882 98.5194 86.1173 107.92 80.0938 107.92C80.0938 77.2738 80.0938 29.9883 80.0938 29.9883Z" fill="#EAC0A7"/>
<path d="M115.2 73.8891C115.67 69.0947 113.411 64.7704 110.023 64.3004C106.635 63.8303 103.529 67.4026 103.058 72.1969C102.588 77.0853 104.847 81.3156 108.235 81.7857C111.529 82.2557 114.729 78.6834 115.2 73.8891Z" fill="#EAC0A7"/>
<path d="M79.9998 160V128.038C79.9998 128.038 71.2468 125.876 69.3645 118.825C68.4233 115.441 68.4233 112.715 68.4233 112.715C68.4233 112.715 49.3174 119.201 45.0821 125.782C41.5056 136.311 40.5645 160 40.5645 160H79.9998Z" fill="#EAC8AD"/>
<path d="M80 160V128.038C80 128.038 88.7529 125.876 90.6353 118.825C91.5765 115.441 91.5765 112.715 91.5765 112.715C91.5765 112.715 110.682 119.201 114.918 125.782C118.494 136.311 119.435 160 119.435 160H80Z" fill="#EAC8AD"/>
<path d="M80.1879 97.2032C84.6114 97.2032 88.1879 94.477 88.1879 91.0928H72.0938C72.0938 94.477 75.7643 97.2032 80.1879 97.2032Z" fill="white"/>
<path d="M80.0002 147.497C80.0002 147.497 71.6237 126.44 68.4237 112.715C65.2237 113.937 62.5884 114.689 60.612 115.723C51.2002 135.559 50.8237 160 50.8237 160H80.0002V147.497Z" fill="#EB1A3A"/>
<path d="M80.188 147.497C80.188 147.497 88.5645 126.44 91.7645 112.715C94.9645 113.937 97.5998 114.689 99.5762 115.723C109.082 135.653 109.459 160 109.459 160H80.2821V147.497H80.188Z" fill="#C5132D"/>
<path d="M78.4938 21.2451C57.6938 21.2451 51.3879 39.3885 51.3879 47.8491C43.8585 58.2839 52.0467 67.6846 57.882 70.9749C57.882 69.0007 57.882 68.3427 57.882 65.8045C57.882 59.036 64.282 52.7375 73.9761 53.7716C82.635 54.7116 88.0938 49.8233 92.7055 41.4566C98.4467 30.3638 91.3879 21.2451 78.4938 21.2451Z" fill="#461811"/>
<path d="M91.8584 38.0726C91.8584 38.0726 96.7525 57.7201 110.023 64.3006C112.376 46.6273 113.788 50.2935 110.023 40.9868C106.258 31.6802 91.8584 24.7236 91.8584 24.7236V38.0726Z" fill="#461811"/>
</svg>
