<svg width="160" height="160" viewBox="0 0 160 160" fill="none" xmlns="http://www.w3.org/2000/svg">
<g clip-path="url(#clip0)">
<path d="M160 80C160 35.8588 124.141 0 80 0C35.8588 0 0 35.8588 0 80C0 124.141 35.8588 160 80 160C124.141 160 160 124.141 160 80Z" fill="#FF333F"/>
<path d="M160 80C160 35.8588 124.141 0 80 0V160C124.141 160 160 124.141 160 80Z" fill="#E30613"/>
<path d="M92.0476 100.142H68.6123V125.836H92.0476V100.142Z" fill="#D9A78C"/>
<path d="M91.8596 113.883H95.8125C103.248 115.765 111.436 117.177 116.801 123.483C120.189 127.436 126.024 160.095 126.024 160.095H111.813H80.189V130.165V123.106C86.589 123.012 91.8596 118.871 91.8596 113.883Z" fill="#C74043"/>
<path d="M68.424 113.883H64.471C57.0357 115.765 48.8475 117.177 43.4828 123.483C40.0946 127.436 34.2593 160.095 34.2593 160.095H48.471H80.2828V130.165V123.106C73.6946 123.012 68.424 118.871 68.424 113.883Z" fill="#C74043"/>
<path d="M80.2827 26.6357C91.6709 26.6357 109.647 33.1299 109.647 63.4357C109.647 80.9416 103.906 92.424 101.459 95.5299C99.2004 98.4475 86.3062 104.659 80.2827 104.659C80.2827 74.071 80.2827 26.6357 80.2827 26.6357Z" fill="#EAC0A7"/>
<path d="M115.294 70.6826C115.765 65.8826 113.506 61.5532 110.118 61.0826C106.73 60.612 103.624 64.1885 103.153 68.9885C102.683 73.7885 104.941 78.1179 108.33 78.5885C111.718 79.0591 114.824 75.4826 115.294 70.6826Z" fill="#EAC0A7"/>
<path d="M80.2832 26.6357C68.8949 26.6357 50.9185 33.1299 50.9185 63.4357C50.9185 80.9416 56.6596 92.424 59.1067 95.5299C61.3655 98.4475 74.2596 104.659 80.2832 104.659C80.2832 74.071 80.2832 26.6357 80.2832 26.6357Z" fill="#F2D7BC"/>
<path d="M45.2714 70.6826C44.8008 65.8826 47.0596 61.5532 50.4479 61.0826C53.8361 60.612 56.942 64.1885 57.4126 68.9885C57.8831 73.7885 55.6243 78.1179 52.2361 78.5885C48.942 79.0591 45.742 75.4826 45.2714 70.6826Z" fill="#F2D7BC"/>
<path d="M80.2826 93.2703C85.5532 93.2703 89.8826 91.4821 89.8826 89.3174H70.6826C70.6826 91.4821 75.012 93.2703 80.2826 93.2703Z" fill="white"/>
<path d="M104.001 65.8826C105.224 62.7767 107.671 60.8002 110.212 61.0826C111.342 57.5061 111.812 53.1767 110.212 48.6591C101.742 24.565 111.342 20.2355 111.342 20.2355C111.342 20.2355 101.93 19.8591 94.6829 25.7885C99.6711 17.9767 101.93 16.0002 101.93 16.0002C101.93 16.0002 91.3888 13.7414 80.0947 25.3179C82.6358 19.012 85.6476 15.9061 85.6476 15.9061C85.6476 15.9061 62.1182 16.0944 53.5535 33.1297C48.6594 42.8238 48.2829 53.3649 49.5064 61.2708C49.7888 61.1767 50.0711 61.0826 50.3535 61.0826C51.4829 60.8944 52.5182 61.2708 53.5535 61.8355C53.5535 58.1649 53.5535 54.8708 53.5535 54.4002C58.0711 52.4238 62.8711 49.8826 62.5888 39.9061C73.1299 39.9061 78.8711 39.9061 78.8711 39.9061H95.6241C95.6241 39.9061 94.8711 51.2002 103.906 53.9297C104.001 58.6355 104.001 62.7767 104.001 65.8826Z" fill="#553828"/>
<path d="M80.1884 125.93C88.8472 125.93 95.906 120.471 95.906 113.789H91.8589C91.8589 118.871 86.5884 122.918 80.1884 122.918C73.6942 122.918 68.5178 118.777 68.5178 113.789H64.4707C64.4707 120.566 71.4354 125.93 80.1884 125.93Z" fill="#0F958C"/>
</g>
<defs>
<clipPath id="clip0">
<rect width="160" height="160" fill="white"/>
</clipPath>
</defs>
</svg>
