<svg width="72" height="72" viewBox="0 0 72 72" fill="none" xmlns="http://www.w3.org/2000/svg">
<g clip-path="url(#clip0)">
<path d="M66.5998 0H34.1998C31.2175 0 28.7998 2.41766 28.7998 5.4V66.6C28.7998 69.5823 31.2175 72 34.1998 72H66.5998C69.5821 72 71.9998 69.5823 71.9998 66.6V5.4C71.9998 2.41766 69.5821 0 66.5998 0Z" fill="#E6E6E6"/>
<path d="M68.4004 10.8H32.4004V61.2H68.4004V10.8Z" fill="#E30613"/>
<path d="M55.8 66.6C55.8 67.0774 55.6104 67.5352 55.2728 67.8728C54.9352 68.2104 54.4774 68.4 54 68.4H46.8C46.3226 68.4 45.8648 68.2104 45.5272 67.8728C45.1896 67.5352 45 67.0774 45 66.6C45 66.1226 45.1896 65.6648 45.5272 65.3272C45.8648 64.9896 46.3226 64.8 46.8 64.8H54C54.4774 64.8 54.9352 64.9896 55.2728 65.3272C55.6104 65.6648 55.8 66.1226 55.8 66.6Z" fill="#BEBEBE"/>
<path d="M61.2004 57.6H32.4004V19.8H44.1364C45.7977 19.8 47.391 20.46 48.5657 21.6347C49.7404 22.8094 50.4004 24.4027 50.4004 26.064V48.6L61.2004 57.6Z" fill="#E30613"/>
<path d="M50.4004 45V22.464C50.4004 20.8027 49.7405 19.2094 48.5657 18.0347C47.391 16.8599 45.7977 16.2 44.1364 16.2H6.33641C5.50778 16.1905 4.68548 16.3454 3.91717 16.656C3.14885 16.9665 2.44979 17.4264 1.86048 18.009C1.27117 18.5916 0.803314 19.2854 0.484025 20.0501C0.164737 20.8148 0.000359095 21.6353 0.00041384 22.464V47.664C-0.00911138 48.4926 0.145879 49.3149 0.456407 50.0832C0.766936 50.8515 1.22683 51.5506 1.80945 52.1399C2.39206 52.7292 3.08582 53.1971 3.85054 53.5164C4.61525 53.8357 5.43572 54 6.26441 54H61.2004L50.4004 45Z" fill="#8CBE00"/>
<path d="M11.6282 30.6L11.8622 30.294C12.3582 29.6024 12.6171 28.7689 12.6002 27.918V20.43C12.6002 20.2868 12.5433 20.1494 12.442 20.0481C12.3408 19.9469 12.2034 19.89 12.0602 19.89C11.917 19.89 11.7796 19.9469 11.6784 20.0481C11.5771 20.1494 11.5202 20.2868 11.5202 20.43V24.516C11.5202 24.6592 11.4633 24.7966 11.362 24.8978C11.2608 24.9991 11.1234 25.056 10.9802 25.056C10.837 25.056 10.6996 24.9991 10.5984 24.8978C10.4971 24.7966 10.4402 24.6592 10.4402 24.516V20.43C10.4402 20.2868 10.3833 20.1494 10.282 20.0481C10.1808 19.9469 10.0434 19.89 9.9002 19.89C9.75699 19.89 9.61963 19.9469 9.51836 20.0481C9.41709 20.1494 9.3602 20.2868 9.3602 20.43V24.516C9.3602 24.6592 9.30331 24.7966 9.20204 24.8978C9.10077 24.9991 8.96342 25.056 8.8202 25.056C8.67699 25.056 8.53963 24.9991 8.43836 24.8978C8.3371 24.7966 8.2802 24.6592 8.2802 24.516V20.43C8.27788 20.3614 8.26206 20.294 8.23366 20.2315C8.20526 20.1691 8.16482 20.1129 8.11467 20.0661C8.06452 20.0192 8.00563 19.9828 7.94138 19.9587C7.87712 19.9347 7.80876 19.9236 7.7402 19.926C7.60301 19.9257 7.47085 19.9776 7.37055 20.0712C7.27025 20.1648 7.20935 20.2931 7.2002 20.43V27.918C7.19862 28.7444 7.45679 29.5503 7.9382 30.222L8.1722 30.528C8.68437 31.1825 8.97443 31.9833 9.0002 32.814V36C8.99985 38.1116 8.87363 40.2214 8.6222 42.318L7.9382 48.312C7.91563 48.5892 7.95118 48.868 8.04258 49.1307C8.13397 49.3934 8.2792 49.6341 8.46896 49.8374C8.65873 50.0407 8.88885 50.2022 9.1446 50.3115C9.40036 50.4207 9.67611 50.4754 9.9542 50.472C10.2346 50.4808 10.5136 50.43 10.7729 50.3228C11.0321 50.2156 11.2657 50.0546 11.458 49.8504C11.6503 49.6461 11.797 49.4034 11.8884 49.1382C11.9798 48.873 12.0138 48.5913 11.9882 48.312L11.3042 42.318C11.0106 40.2239 10.8423 38.1141 10.8002 36V32.76C10.8518 31.9729 11.1404 31.2199 11.6282 30.6Z" fill="white"/>
<path d="M25.3801 46.026C31.3448 46.026 36.1801 41.1907 36.1801 35.226C36.1801 29.2613 31.3448 24.426 25.3801 24.426C19.4154 24.426 14.5801 29.2613 14.5801 35.226C14.5801 41.1907 19.4154 46.026 25.3801 46.026Z" fill="white"/>
<path d="M41.0395 50.526H40.8955C40.6198 50.5266 40.3469 50.4705 40.0937 50.3614C39.8405 50.2523 39.6124 50.0925 39.4235 49.8917C39.2345 49.691 39.0888 49.4536 38.9952 49.1942C38.9016 48.9349 38.8622 48.6592 38.8795 48.384L39.5995 42.012C39.8155 40.19 39.9237 38.3568 39.9235 36.522V36.18C39.9197 35.3514 39.6412 34.5474 39.1315 33.894C38.4738 33.0498 38.1131 32.0121 38.1055 30.942V25.2C38.1228 24.2003 38.3745 23.2186 38.8403 22.3339C39.3061 21.4491 39.9731 20.6861 40.7875 20.106C40.8937 20.0288 41.0185 19.9812 41.1492 19.9683C41.2799 19.9555 41.4117 19.9777 41.5309 20.0327C41.6502 20.0877 41.7525 20.1736 41.8275 20.2814C41.9025 20.3892 41.9474 20.5151 41.9575 20.646V36.576C41.9633 38.5445 42.0956 40.5105 42.3535 42.462L43.0735 48.402C43.0831 48.676 43.0377 48.9491 42.9401 49.2052C42.8424 49.4614 42.6944 49.6953 42.5048 49.8933C42.3152 50.0913 42.0878 50.2493 41.8362 50.358C41.5845 50.4666 41.3136 50.5238 41.0395 50.526Z" fill="white"/>
<path d="M25.3797 42.426C29.3561 42.426 32.5797 39.2025 32.5797 35.226C32.5797 31.2496 29.3561 28.026 25.3797 28.026C21.4032 28.026 18.1797 31.2496 18.1797 35.226C18.1797 39.2025 21.4032 42.426 25.3797 42.426Z" fill="#E6E6E6"/>
<path d="M32.3998 54H28.7998V57.6H32.3998V54Z" fill="#BEBEBE"/>
</g>
<defs>
<clipPath id="clip0">
<rect width="72" height="72" fill="white"/>
</clipPath>
</defs>
</svg>
