<svg width="72" height="72" viewBox="0 0 72 72" fill="none" xmlns="http://www.w3.org/2000/svg">
<path d="M0 50.4L23.4 45L48.6 50.4L72 45V66.6L48.6 72L23.4 66.6L0 72V50.4Z" fill="#8CBE00"/>
<path d="M23.4004 45V66.6L48.6004 72V50.4L23.4004 45Z" fill="#78AA00"/>
<path d="M36.0002 4.06467e-09C30.7707 -0.000105884 25.7535 2.06865 22.0439 5.75467C18.3343 9.44068 16.2335 14.4446 16.2002 19.674C16.1934 23.2418 17.1713 26.7423 19.0262 29.79L36.0002 57.6L52.9742 29.79C54.8266 26.7412 55.8043 23.2414 55.8002 19.674C55.767 14.4446 53.6662 9.44068 49.9566 5.75467C46.247 2.06865 41.2298 -0.000105884 36.0002 4.06467e-09Z" fill="#E30613"/>
<path d="M39.9241 18.396H40.2841C41.0795 18.2698 41.8157 17.8985 42.3901 17.334L47.5561 12.15C47.604 12.1031 47.6421 12.0471 47.668 11.9852C47.694 11.9234 47.7074 11.8571 47.7074 11.79C47.7074 11.7229 47.694 11.6566 47.668 11.5948C47.6421 11.5329 47.604 11.4769 47.5561 11.43C47.5092 11.3821 47.4532 11.3441 47.3914 11.3181C47.3295 11.2921 47.2632 11.2787 47.1961 11.2787C47.1291 11.2787 47.0627 11.2921 47.0009 11.3181C46.9391 11.3441 46.883 11.3821 46.8361 11.43L43.9921 14.166C43.8943 14.271 43.7587 14.3329 43.6152 14.3379C43.4717 14.343 43.3321 14.2909 43.2271 14.193C43.1221 14.0951 43.0602 13.9596 43.0552 13.8161C43.0501 13.6726 43.1023 13.533 43.2001 13.428L46.0621 10.62C46.1599 10.5221 46.2149 10.3894 46.2149 10.251C46.2149 10.1126 46.1599 9.97988 46.0621 9.882C46.0152 9.8341 45.9592 9.79606 45.8974 9.77008C45.8356 9.7441 45.7692 9.73072 45.7021 9.73072C45.6351 9.73072 45.5687 9.7441 45.5069 9.77008C45.4451 9.79606 45.389 9.8341 45.3421 9.882L42.4981 12.69C42.3979 12.7879 42.2628 12.8419 42.1228 12.8402C41.9827 12.8385 41.849 12.7812 41.7511 12.681C41.6533 12.5807 41.5992 12.4457 41.6009 12.3056C41.6026 12.1655 41.6599 12.0319 41.7601 11.934L44.5681 9.126C44.6659 9.02811 44.7209 8.89539 44.7209 8.757C44.7209 8.61861 44.6659 8.48588 44.5681 8.388C44.5212 8.3401 44.4652 8.30206 44.4034 8.27608C44.3415 8.2501 44.2752 8.23672 44.2081 8.23672C44.1411 8.23672 44.0747 8.2501 44.0129 8.27608C43.9511 8.30206 43.895 8.3401 43.8481 8.388L38.6641 13.536C38.088 14.1043 37.7094 14.8425 37.5841 15.642V16.02C37.4578 16.8101 37.0863 17.5406 36.5221 18.108L34.2001 20.34C32.74 21.8032 31.1954 23.1796 29.5741 24.462L24.9481 28.062C24.7414 28.2379 24.5737 28.4551 24.456 28.6997C24.3383 28.9442 24.2731 29.2107 24.2646 29.482C24.2561 29.7533 24.3046 30.0234 24.4068 30.2749C24.509 30.5263 24.6628 30.7536 24.8581 30.942C25.0403 31.1429 25.2626 31.3035 25.5106 31.4134C25.7586 31.5233 26.0269 31.58 26.2981 31.58C26.5694 31.58 26.8376 31.5233 27.0856 31.4134C27.3336 31.3035 27.5559 31.1429 27.7381 30.942L31.3381 26.316C32.6259 24.705 34.002 23.1666 35.4601 21.708L37.8001 19.476C38.3754 18.8995 39.1194 18.5213 39.9241 18.396Z" fill="white"/>
<path d="M46.9447 30.996L46.8367 31.104C46.6414 31.3116 46.4058 31.477 46.1442 31.5901C45.8826 31.7032 45.6006 31.7615 45.3157 31.7615C45.0307 31.7615 44.7487 31.7032 44.4871 31.5901C44.2256 31.477 43.9899 31.3116 43.7947 31.104L39.6907 25.848C38.5466 24.3595 37.3144 22.941 36.0007 21.6L35.7307 21.33C35.1237 20.7268 34.3309 20.3462 33.4807 20.25C32.3785 20.1103 31.3534 19.6104 30.5647 18.828L26.2807 14.544C25.5528 13.8016 25.0104 12.898 24.6976 11.9065C24.3849 10.915 24.3105 9.86363 24.4807 8.83798C24.5076 8.70625 24.5677 8.58355 24.6552 8.48145C24.7427 8.37934 24.8548 8.3012 24.9808 8.25438C25.1069 8.20756 25.2428 8.1936 25.3757 8.21383C25.5086 8.23405 25.6342 8.2878 25.7407 8.36999L37.4227 20.052C38.8632 21.4945 40.3965 22.8414 42.0127 24.084L46.8907 27.882C47.1084 28.0771 47.2836 28.315 47.4051 28.5809C47.5267 28.8468 47.5921 29.1349 47.5971 29.4272C47.6022 29.7195 47.5469 30.0097 47.4346 30.2797C47.3223 30.5496 47.1555 30.7935 46.9447 30.996Z" fill="white"/>
</svg>
