<svg width="72" height="72" viewBox="0 0 72 72" fill="none" xmlns="http://www.w3.org/2000/svg">
<g clip-path="url(#clip0)">
<path d="M60.9972 35H4.00259C3.90586 27.9362 6.52212 21.1013 11.3185 15.8878C16.1148 10.6742 22.7304 7.47406 29.8178 6.93919C29.9507 6.91253 30.0711 6.84313 30.1604 6.7417C30.2497 6.64027 30.3029 6.51245 30.3119 6.37797C30.3075 6.16399 30.2261 5.95864 30.0825 5.79922C29.5131 5.17488 29.1985 4.36191 29.2002 3.51928C29.1671 3.0696 29.2275 2.61797 29.3779 2.19258C29.5283 1.76719 29.7653 1.37718 30.0741 1.04692C30.3829 0.716655 30.7569 0.453231 31.1728 0.2731C31.5887 0.0929691 32.0374 0 32.4911 0C32.9447 0 33.3935 0.0929691 33.8093 0.2731C34.2252 0.453231 34.5992 0.716655 34.9081 1.04692C35.2169 1.37718 35.4539 1.76719 35.6042 2.19258C35.7546 2.61797 35.8151 3.0696 35.7819 3.51928C35.7809 4.35618 35.4664 5.16272 34.8997 5.78168C34.8248 5.85826 34.766 5.94885 34.7266 6.0482C34.6872 6.14755 34.6681 6.25368 34.6703 6.36043C34.6809 6.49167 34.7325 6.61633 34.818 6.71696C34.9034 6.81759 35.0183 6.88916 35.1467 6.92165C42.2434 7.44819 48.8704 10.6471 53.6746 15.8653C58.4787 21.0835 61.0979 27.9275 60.9972 35V35Z" fill="#E6E6E6"/>
<path d="M65.7259 38.1502C65.7259 37.2575 65.372 36.4013 64.7422 35.7701C64.1124 35.1388 63.2582 34.7842 62.3674 34.7842H2.11301C1.26705 34.8463 0.47588 35.227 -0.101577 35.8497C-0.679035 36.4724 -1 37.291 -1 38.1412C-1 38.9913 -0.679035 39.81 -0.101577 40.4327C0.47588 41.0554 1.26705 41.4361 2.11301 41.4982H62.3674C63.2551 41.4982 64.1066 41.146 64.7359 40.5187C65.3652 39.8913 65.7211 39.0398 65.7259 38.1502Z" fill="#DC8C14"/>
<path d="M66.5 54.5L54 62.5L47.7789 52.766L18.5587 48.41C17.8395 48.3614 17.1553 48.081 16.6083 47.6106C16.0613 47.1402 15.6807 46.505 15.5235 45.8C15.4961 45.5368 15.4961 45.2713 15.5235 45.008V44.792C15.5369 43.9319 15.8801 43.1099 16.482 42.4966C17.0839 41.8833 17.8983 41.5257 18.7562 41.498H53.526C54.7385 41.4993 55.9319 41.8006 57.0003 42.3753C58.0686 42.9499 58.9789 43.7801 59.6502 44.792L60.3506 45.854L66.5 54.5Z" fill="#FFD2B4"/>
<path d="M65.5 51L51 60L47.776 52.768L18.5557 48.412C17.8366 48.3634 17.1524 48.0829 16.6054 47.6125C16.0584 47.1421 15.6778 46.507 15.5206 45.802C15.4931 45.5387 15.4931 45.2733 15.5206 45.01V44.794C15.534 43.9338 15.8772 43.1118 16.4791 42.4985C17.081 41.8852 17.8954 41.5276 18.7533 41.5H53.5231C54.7355 41.5013 55.929 41.8026 56.9973 42.3772C58.0657 42.9519 58.976 43.782 59.6473 44.794L60.3477 45.856L65.5 51Z" fill="#31DCCC"/>
<path d="M49 65.788C50.8243 68.5282 53.66 70.4299 56.8832 71.0746C60.1065 71.7194 63.4533 71.0544 66.1873 69.226C68.9214 67.3976 70.8188 64.5555 71.4621 61.325C72.1054 58.0945 71.4419 54.7402 69.6176 52L49 65.788Z" fill="#E30613"/>
<path d="M60.3506 45.8H15.5235C15.4961 45.5368 15.4961 45.2713 15.5235 45.008V44.792C15.5369 43.9319 15.8801 43.1099 16.482 42.4966C17.0839 41.8833 17.8983 41.5257 18.7562 41.498H53.526C54.7385 41.4993 55.9319 41.8006 57.0003 42.3753C58.0686 42.9499 58.9789 43.7801 59.6502 44.792L60.3506 45.8Z" fill="#31C5DC"/>
</g>
<defs>
<clipPath id="clip0">
<rect width="72" height="72" fill="white"/>
</clipPath>
</defs>
</svg>
