<svg width="72" height="72" viewBox="0 0 72 72" fill="none" xmlns="http://www.w3.org/2000/svg">
<path d="M48.6004 5.4V66.6C48.6 67.3304 48.4515 68.0532 48.1638 68.7246C47.876 69.396 47.4551 70.002 46.9264 70.506C45.9225 71.4643 44.5882 71.9993 43.2004 72H10.8004C9.36822 72 7.99471 71.4311 6.98201 70.4184C5.96932 69.4057 5.40039 68.0322 5.40039 66.6V5.4C5.40039 3.96783 5.96932 2.59432 6.98201 1.58162C7.99471 0.568927 9.36822 0 10.8004 0L43.2004 0C44.6326 0 46.0061 0.568927 47.0188 1.58162C48.0315 2.59432 48.6004 3.96783 48.6004 5.4Z" fill="#E6E6E6"/>
<path d="M32.3996 66.6C32.3996 67.0774 32.21 67.5352 31.8724 67.8728C31.5348 68.2104 31.077 68.4 30.5996 68.4H23.3996C22.9222 68.4 22.4644 68.2104 22.1268 67.8728C21.7893 67.5352 21.5996 67.0774 21.5996 66.6C21.5996 66.1226 21.7893 65.6648 22.1268 65.3272C22.4644 64.9896 22.9222 64.8 23.3996 64.8H30.5996C31.077 64.8 31.5348 64.9896 31.8724 65.3272C32.21 65.6648 32.3996 66.1226 32.3996 66.6Z" fill="#BEBEBE"/>
<path d="M45 10.8H9V61.2H45V10.8Z" fill="#E30613"/>
<path d="M48.6 46.044V66.6C48.5996 67.3305 48.4511 68.0532 48.1634 68.7246C47.8756 69.396 47.4547 70.002 46.926 70.506C46.1418 70.1187 45.4247 69.6082 44.802 68.994L37.152 61.326C36.9348 61.1102 36.7625 60.8536 36.6449 60.5709C36.5273 60.2883 36.4668 59.9852 36.4668 59.679C36.4668 59.3729 36.5273 59.0697 36.6449 58.7871C36.7625 58.5044 36.9348 58.2478 37.152 58.032C37.569 57.6326 38.1226 57.4073 38.7 57.402C38.9892 57.3899 39.2777 57.4381 39.5473 57.5434C39.8169 57.6488 40.0616 57.809 40.266 58.014L43.452 61.2C43.5169 61.2483 43.5969 61.272 43.6777 61.2668C43.7585 61.2617 43.8349 61.228 43.8932 61.1719C43.9515 61.1157 43.988 61.0407 43.9962 60.9602C44.0044 60.8796 43.9838 60.7988 43.938 60.732L32.616 49.428C32.1869 49.0322 31.9255 48.4873 31.8853 47.905C31.8451 47.3226 32.0293 46.7469 32.4 46.296C32.594 46.0484 32.8379 45.8443 33.1157 45.6968C33.3935 45.5493 33.6992 45.4617 34.013 45.4397C34.3268 45.4176 34.6417 45.4616 34.9375 45.5688C35.2332 45.676 35.5032 45.844 35.73 46.062L41.13 51.462C40.8333 50.9795 40.7279 50.4035 40.8345 49.8472C40.9411 49.2909 41.2519 48.7946 41.706 48.456C42.1453 48.1204 42.6906 47.9539 43.2424 47.9869C43.7943 48.02 44.3159 48.2504 44.712 48.636L44.982 48.924C44.6901 48.4356 44.5893 47.8564 44.699 47.2981C44.8086 46.7397 45.121 46.2418 45.576 45.9C46.0109 45.5511 46.5583 45.3732 47.1152 45.3997C47.6722 45.4262 48.2002 45.6554 48.6 46.044Z" fill="#BEBEBE"/>
<path d="M43.4513 61.2H43.5413H37.0433C36.6594 60.7517 36.4621 60.1732 36.4923 59.5837C36.5224 58.9942 36.7776 58.4388 37.2053 58.032C37.6223 57.6326 38.1759 57.4073 38.7533 57.402C39.0425 57.3899 39.331 57.4381 39.6006 57.5434C39.8702 57.6488 40.1149 57.809 40.3193 58.014L43.4513 61.2Z" fill="#775D3C"/>
<path d="M44.839 48.6L45.001 48.78V61.2H43.849C43.9085 61.1366 43.9416 61.0529 43.9416 60.966C43.9416 60.8791 43.9085 60.7954 43.849 60.732L32.527 49.428C32.1109 49.0203 31.8661 48.4691 31.8427 47.887C31.8193 47.3049 32.019 46.7358 32.401 46.296C32.5951 46.0484 32.8389 45.8443 33.1167 45.6968C33.3946 45.5493 33.7003 45.4617 34.014 45.4396C34.3278 45.4176 34.6428 45.4616 34.9385 45.5688C35.2342 45.676 35.5042 45.844 35.731 46.062L41.131 51.462C40.8343 50.9795 40.7289 50.4035 40.8355 49.8472C40.9421 49.2909 41.253 48.7946 41.707 48.456C42.1509 48.0803 42.7204 47.8864 43.3013 47.9131C43.8822 47.9398 44.4315 48.1852 44.839 48.6Z" fill="#775D3C"/>
<path d="M48.6004 28.8V39.6C47.9039 39.6143 47.2115 39.491 46.5628 39.237C45.9141 38.9831 45.3219 38.6036 44.8202 38.1203C44.3185 37.637 43.9171 37.0594 43.6392 36.4206C43.3612 35.7819 43.2121 35.0945 43.2004 34.398C43.2004 35.8302 42.6315 37.2037 41.6188 38.2164C40.6061 39.2291 39.2326 39.798 37.8004 39.798C36.3682 39.798 34.9947 39.2291 33.982 38.2164C32.9693 37.2037 32.4004 35.8302 32.4004 34.398C32.4004 35.8302 31.8315 37.2037 30.8188 38.2164C29.8061 39.2291 28.4326 39.798 27.0004 39.798C25.5682 39.798 24.1947 39.2291 23.182 38.2164C22.1693 37.2037 21.6004 35.8302 21.6004 34.398C21.5887 35.0945 21.4396 35.7819 21.1616 36.4206C20.8837 37.0594 20.4823 37.637 19.9806 38.1203C19.4789 38.6036 18.8867 38.9831 18.238 39.237C17.5893 39.491 16.8969 39.6143 16.2004 39.6C15.5039 39.6143 14.8115 39.491 14.1628 39.237C13.5141 38.9831 12.9219 38.6036 12.4202 38.1203C11.9185 37.637 11.5171 37.0594 11.2392 36.4206C10.9612 35.7819 10.8121 35.0945 10.8004 34.398C10.7887 35.0945 10.6396 35.7819 10.3616 36.4206C10.0837 37.0594 9.68232 37.637 9.18062 38.1203C8.67892 38.6036 8.08673 38.9831 7.43803 39.237C6.78932 39.491 6.09687 39.6143 5.40039 39.6V28.8H48.6004Z" fill="#BEBEBE"/>
<path d="M45 28.8V38.268C44.4347 37.7903 43.9806 37.1948 43.6697 36.5232C43.3587 35.8516 43.1984 35.1201 43.2 34.38C43.2 35.8122 42.6311 37.1857 41.6184 38.1984C40.6057 39.2111 39.2322 39.78 37.8 39.78C36.3678 39.78 34.9943 39.2111 33.9816 38.1984C32.9689 37.1857 32.4 35.8122 32.4 34.38C32.4 35.8122 31.8311 37.1857 30.8184 38.1984C29.8057 39.2111 28.4322 39.78 27 39.78C25.5678 39.78 24.1943 39.2111 23.1816 38.1984C22.1689 37.1857 21.6 35.8122 21.6 34.38C21.5906 35.078 21.4433 35.7673 21.1664 36.4082C20.8894 37.049 20.4885 37.6288 19.9865 38.114C19.4846 38.5992 18.8916 38.9803 18.2417 39.2353C17.5919 39.4904 16.898 39.6143 16.2 39.6C15.5035 39.6143 14.8111 39.491 14.1624 39.237C13.5137 38.9831 12.9215 38.6036 12.4198 38.1203C11.9181 37.637 11.5167 37.0594 11.2388 36.4206C10.9608 35.7819 10.8117 35.0945 10.8 34.398C10.8016 35.1381 10.6412 35.8696 10.3303 36.5412C10.0194 37.2128 9.56533 37.8083 9 38.286V28.8H45Z" fill="#BF0618"/>
<path d="M0 23.4V28.98C0.00935153 29.6781 0.156729 30.3674 0.433641 31.0082C0.710554 31.6491 1.11153 32.2288 1.61347 32.714C2.11541 33.1992 2.70839 33.5803 3.35826 33.8353C4.00812 34.0904 4.70203 34.2143 5.4 34.2C6.09648 34.2143 6.78893 34.091 7.43764 33.8371C8.08634 33.5831 8.67853 33.2036 9.18023 32.7203C9.68193 32.237 10.0833 31.6594 10.3612 31.0207C10.6392 30.3819 10.7883 29.6945 10.8 28.998V23.4H0Z" fill="#FF5824"/>
<path d="M10.7998 23.4V28.98C10.8092 29.6781 10.9565 30.3674 11.2334 31.0082C11.5104 31.6491 11.9113 32.2288 12.4133 32.714C12.9152 33.1992 13.5082 33.5803 14.1581 33.8353C14.8079 34.0904 15.5018 34.2143 16.1998 34.2C16.8963 34.2143 17.5887 34.091 18.2374 33.8371C18.8861 33.5831 19.4783 33.2036 19.98 32.7203C20.4817 32.237 20.8831 31.6594 21.161 31.0207C21.439 30.3819 21.5881 29.6945 21.5998 28.998V23.4H10.7998Z" fill="#BEBEBE"/>
<path d="M21.5996 23.4V28.98C21.5996 30.4122 22.1685 31.7857 23.1812 32.7984C24.1939 33.8111 25.5674 34.38 26.9996 34.38C28.4318 34.38 29.8053 33.8111 30.818 32.7984C31.8307 31.7857 32.3996 30.4122 32.3996 28.98V23.4H21.5996Z" fill="#FF5824"/>
<path d="M32.4004 23.4V28.98C32.4004 30.4122 32.9693 31.7857 33.982 32.7984C34.9947 33.8111 36.3682 34.38 37.8004 34.38C39.2326 34.38 40.6061 33.8111 41.6188 32.7984C42.6315 31.7857 43.2004 30.4122 43.2004 28.98V23.4H32.4004Z" fill="#BEBEBE"/>
<path d="M43.2002 23.4V28.98C43.2002 30.4122 43.7691 31.7857 44.7818 32.7984C45.7945 33.8111 47.168 34.38 48.6002 34.38C50.0324 34.38 51.4059 33.8111 52.4186 32.7984C53.4313 31.7857 54.0002 30.4122 54.0002 28.98V23.4H43.2002Z" fill="#FF5824"/>
<path d="M16.2 10.8L10.8 23.418H0L9 10.8H16.2Z" fill="#F99A5A"/>
<path d="M23.3998 10.8L21.5998 23.418H10.7998L16.1998 10.8H23.3998Z" fill="white"/>
<path d="M30.5996 10.8L32.3996 23.418H21.5996L23.3996 10.8H30.5996Z" fill="#F99A5A"/>
<path d="M37.7996 10.8L43.1996 23.418H32.3996L30.5996 10.8H37.7996Z" fill="white"/>
<path d="M44.9998 10.8L53.9998 23.418H43.1998L37.7998 10.8H44.9998Z" fill="#F99A5A"/>
<path d="M62.5383 51.2796L51.0195 62.7983L56.0852 67.8641L67.604 56.3453L62.5383 51.2796Z" fill="#FFD2B4"/>
<path d="M68.9942 54.954C69.9128 55.8084 70.6503 56.8388 71.1628 57.9839C71.6753 59.129 71.9524 60.3655 71.9776 61.6198C72.0028 62.8741 71.7756 64.1207 71.3094 65.2855C70.8433 66.4502 70.1477 67.5094 69.2641 68.4L68.6161 69.048C66.7754 70.883 64.291 71.9267 61.6921 71.957C59.0931 71.9872 56.5851 71.0016 54.7021 69.21L68.9942 54.954Z" fill="#E30613"/>
<path d="M52.8665 38.826L60.4805 46.44L62.7665 48.744C63.3445 49.3164 63.8033 49.9977 64.1164 50.7484C64.4295 51.4992 64.5907 52.3046 64.5907 53.118C64.5907 53.9315 64.4295 54.7368 64.1164 55.4876C63.8033 56.2384 63.3445 56.9196 62.7665 57.492L56.3225 63.954C54.7915 65.4753 52.7208 66.3291 50.5625 66.3291C48.4042 66.3291 46.3335 65.4753 44.8025 63.954L37.1525 56.286C36.9353 56.0702 36.763 55.8136 36.6454 55.5309C36.5278 55.2483 36.4673 54.9452 36.4673 54.639C36.4673 54.3329 36.5278 54.0297 36.6454 53.7471C36.763 53.4644 36.9353 53.2078 37.1525 52.992C37.5695 52.5926 38.1231 52.3673 38.7005 52.362C38.9897 52.3499 39.2782 52.3981 39.5478 52.5034C39.8174 52.6088 40.0621 52.769 40.2665 52.974L43.3985 56.124C43.4637 56.1798 43.5467 56.2104 43.6325 56.2104C43.7183 56.2104 43.8013 56.1798 43.8665 56.124C43.926 56.0606 43.9591 55.9769 43.9591 55.89C43.9591 55.8031 43.926 55.7194 43.8665 55.656L32.5445 44.352C32.136 43.9484 31.8944 43.4058 31.8677 42.8321C31.841 42.2585 32.0312 41.6958 32.4005 41.256C32.5946 41.0085 32.8384 40.8043 33.1162 40.6568C33.3941 40.5093 33.6997 40.4217 34.0135 40.3997C34.3273 40.3776 34.6423 40.4216 34.938 40.5288C35.2337 40.636 35.5037 40.804 35.7305 41.022L41.1305 46.422C40.8184 45.9405 40.6972 45.3599 40.7907 44.7937C40.8841 44.2276 41.1854 43.7167 41.6357 43.361C42.0859 43.0053 42.6527 42.8304 43.2251 42.8706C43.7975 42.9107 44.3343 43.163 44.7305 43.578L45.0005 43.866C44.7086 43.3776 44.6078 42.7984 44.7175 42.2401C44.8272 41.6818 45.1395 41.1838 45.5945 40.842C46.0344 40.5051 46.5818 40.3394 47.1347 40.3758C47.6877 40.4123 48.2085 40.6483 48.6005 41.04L49.1585 41.598C48.8639 41.1163 48.7564 40.5432 48.8565 39.9875C48.9565 39.4318 49.2572 38.9322 49.7013 38.5836C50.1455 38.2349 50.7022 38.0615 51.2658 38.0962C51.8293 38.131 52.3605 38.3715 52.7585 38.772L52.8665 38.826Z" fill="#FFD2B4"/>
</svg>
