<svg width="72" height="72" viewBox="0 0 72 72" fill="none" xmlns="http://www.w3.org/2000/svg">
<g clip-path="url(#clip0)">
<path d="M32.0985 103.68H0.615064C0.256132 103.68 -0.0515239 103.373 -0.000247915 103.014C0.358684 100.142 1.79441 88.8103 2.6661 79.9908C3.58907 69.7869 8.05008 66.3514 15.3825 65.0695C17.3823 64.7106 19.2795 64.0953 20.9203 63.4287C22.3048 65.6336 23.7405 68.3512 24.8686 71.5303C27.8939 79.8883 31.9447 102.911 32.0985 103.68C32.0985 103.68 32.0985 103.629 32.0985 103.68Z" fill="#E30613"/>
<path d="M43.3789 45.2256V52.5068C41.9944 53.1734 39.2255 54.2502 35.6875 54.2502C32.2007 54.2502 29.4318 53.1734 27.9961 52.5068V45.2256H43.3789Z" fill="#FFA485"/>
<path d="M43.3794 45.2256V48.0458C41.2771 50.9172 38.6107 52.6606 35.688 52.6606C32.7652 52.6606 30.0989 50.9685 28.0479 48.097V45.2256H43.3794Z" fill="#E47B65"/>
<path d="M70.7612 103.68H39.7393C39.8418 102.809 39.9956 101.527 40.2007 99.9885C41.4826 93.0149 44.4566 77.9398 46.7641 71.5303C47.8921 68.4025 49.3279 65.6848 50.661 63.5312C52.2506 64.1978 54.0453 64.7619 55.9937 65.0695C63.3262 66.3514 67.7872 69.7869 68.7615 79.9908C69.5819 88.8103 71.0176 100.142 71.4278 103.014C71.4278 103.321 71.1202 103.68 70.7612 103.68Z" fill="#E30613"/>
<path d="M45.5843 65.9922C44.4562 68.0432 41.5335 89.8868 40.2003 99.9881C39.9952 101.526 39.8414 102.757 39.7389 103.68H32.0987C32.0987 103.577 32.0475 103.475 32.0475 103.372C31.9962 103.167 31.9962 102.911 31.9449 102.654C31.8936 102.142 31.7911 101.526 31.7398 100.86C31.7398 100.86 31.7398 100.86 31.7398 100.809C31.6885 100.296 31.586 99.783 31.5347 99.219C31.3809 98.2447 31.2783 97.1167 31.1245 95.9373C31.0732 95.5784 31.0219 95.1682 30.9707 94.8092C30.9194 94.5016 30.8681 94.1427 30.8168 93.835C30.7143 93.2197 30.663 92.5531 30.5605 91.9378C30.4579 91.3225 30.4066 90.7072 30.3041 90.0919C30.2528 89.7329 30.2015 89.374 30.1503 88.9638C30.1503 88.81 30.099 88.6561 30.099 88.5023C29.9964 87.887 29.9451 87.2717 29.8426 86.6564C29.2786 82.7594 28.7145 78.8111 28.2018 75.3757C28.2018 75.2218 28.1505 75.1193 28.1505 74.9654C27.4326 70.3506 26.7148 66.8126 26.3046 66.0434C24.8688 63.4796 25.279 61.3773 25.3303 61.2748C25.4841 59.4288 26.7148 57.6854 26.7148 57.6854C25.1252 55.6344 25.3303 53.6859 25.3303 53.6859C25.7405 51.6349 27.0224 50.9683 28.0479 50.7632V52.6091C29.4837 53.2757 32.2526 54.3525 35.7393 54.3525C39.2774 54.3525 42.0463 53.2757 43.4307 52.6091V50.7119C44.4562 50.8145 46.1484 51.3272 46.6098 53.7372C46.6098 53.7372 46.8149 55.6857 45.2254 57.7367C45.2254 57.7367 46.456 59.4801 46.6098 61.326C46.6098 61.326 46.6611 61.4286 46.6611 61.6337C46.6611 62.1977 46.7124 63.9411 45.5843 65.9922Z" fill="white"/>
<path d="M32.0991 103.629C31.9966 102.912 27.8945 79.8887 24.8692 71.5307C23.7411 68.3516 22.3054 65.6339 20.921 63.4291C18.6135 59.7885 16.5625 57.6862 16.5625 57.6862C19.6391 53.0201 25.5358 49.9435 27.9458 48.8154V50.6614C26.9202 50.8665 25.6383 51.5331 25.2281 53.5841C25.2281 53.5841 25.023 55.5326 26.6126 57.5836C26.6126 57.5836 25.382 59.327 25.2281 61.1729C25.1769 61.2755 24.7667 63.3778 26.2024 65.9416C26.6126 66.7107 27.2792 70.1975 28.0483 74.8636C28.0483 75.0174 28.0996 75.12 28.0996 75.2738C28.6636 78.658 29.2277 82.6576 29.7404 86.5545C29.843 87.1699 29.8943 87.7852 29.9968 88.4005C29.9968 88.5543 30.0481 88.7081 30.0481 88.862C30.0994 89.2209 30.1506 89.6311 30.2019 89.99C30.3045 90.6053 30.3557 91.2207 30.4583 91.836C30.5608 92.5026 30.6121 93.1179 30.7147 93.7332C30.7659 94.0408 30.8172 94.3998 30.8685 94.7074C30.9198 95.1176 30.971 95.4766 31.0223 95.8355C31.1762 97.0148 31.33 98.0916 31.4325 99.1172C31.4838 99.6812 31.5864 100.245 31.6376 100.707C31.6376 100.707 31.6376 100.707 31.6376 100.758C31.7402 101.425 31.7915 102.04 31.8427 102.553C31.894 102.809 31.894 103.065 31.9453 103.271C32.0478 103.424 32.0991 103.527 32.0991 103.629Z" fill="#8CBE00"/>
<path d="M55.0189 57.6862C55.0189 57.6862 52.9166 59.8398 50.6092 63.5316C49.276 65.6852 47.8403 68.4029 46.7122 71.5307C44.4561 77.9402 41.4821 93.0153 40.2002 99.9889C41.4821 89.8875 44.4561 68.0439 45.5842 65.9929C46.7122 63.9419 46.7122 62.1985 46.6097 61.5319C46.6097 61.3268 46.5584 61.2242 46.5584 61.2242C46.4046 59.3783 45.174 57.6349 45.174 57.6349C46.7635 55.5839 46.5584 53.6354 46.5584 53.6354C46.0457 51.2254 44.4048 50.7127 43.3793 50.6101V48.7129C45.5842 49.6871 51.8398 52.815 55.0189 57.6862Z" fill="#8CBE00"/>
<path d="M50.4046 35.9449L50.3533 35.8936C48.251 43.8927 42.5081 49.6869 35.8422 49.6869C29.1764 49.6869 23.4847 43.944 21.3311 35.9962C14.5114 38.2011 13.6397 28.8688 16.4087 27.4844C16.9727 27.228 17.4854 27.1254 17.9469 27.1254C17.9982 27.1254 18.1008 27.1254 18.152 27.1254C18.3059 27.1254 18.4597 27.1767 18.6135 27.228C18.6648 27.228 18.7161 27.2793 18.7673 27.2793C18.8186 27.2793 18.8699 27.3306 18.8699 27.3306C18.9212 27.3818 18.9724 27.3818 19.0237 27.4331C19.1263 27.4844 19.2288 27.5357 19.3314 27.6382C19.3827 27.6895 19.4339 27.6895 19.4852 27.7408C19.5365 27.7408 19.5365 27.792 19.5878 27.8433C19.639 27.8946 19.6903 27.9459 19.7416 27.9971L19.7929 28.0484C19.8441 28.0997 19.8954 28.151 19.9467 28.2535C19.9467 28.2535 19.9467 28.2535 19.998 28.3048C20.0492 28.3561 20.0492 28.4073 20.1005 28.4586C20.3056 28.715 20.4082 28.9714 20.4082 29.0227C21.4337 28.0997 22.1003 24.8693 22.1003 24.8693H22.1516C22.8694 17.3317 25.7409 11.8965 35.8422 11.8965C46.2 11.8965 48.9176 17.3317 49.5329 24.8693C49.5842 25.177 49.5842 25.4846 49.5842 25.7923C49.8919 27.8946 51.225 29.0739 51.225 29.0739L51.2763 29.0227C51.2763 29.0227 51.2763 29.0227 51.2763 28.9714C51.2763 28.9714 51.2763 28.9714 51.2763 28.9201C51.2763 28.8688 51.3276 28.8176 51.3789 28.7663C51.3789 28.7663 51.3789 28.715 51.4301 28.715C51.4814 28.6637 51.4814 28.6125 51.5327 28.5612C51.584 28.4586 51.6865 28.3561 51.7891 28.2022C51.8403 28.151 51.8916 28.0997 51.9429 28.0484L51.9942 27.9971C52.0455 27.9459 52.0967 27.8946 52.148 27.8433C52.1993 27.792 52.3018 27.6895 52.3531 27.6382C52.4044 27.5869 52.4557 27.5357 52.5582 27.5357C52.5582 27.5357 52.5582 27.5357 52.6095 27.5357C52.6608 27.4844 52.712 27.4844 52.7633 27.4331C52.8146 27.4331 52.8146 27.3818 52.8659 27.3818C52.9171 27.3306 53.0197 27.3306 53.1222 27.2793C53.1735 27.2793 53.2248 27.228 53.2761 27.228C53.3274 27.228 53.3786 27.228 53.4299 27.1767C53.4812 27.1767 53.5325 27.1767 53.5837 27.1254C53.635 27.1254 53.6863 27.1254 53.7888 27.1254H53.8401C54.3016 27.1254 54.7631 27.228 55.3271 27.4844C58.096 28.8176 57.173 38.2011 50.4046 35.9449Z" fill="#FFBAA3"/>
<path d="M51.8395 33.5869C51.7882 33.5869 51.7882 33.5869 51.7369 33.5869C51.6344 33.5356 51.5831 33.3818 51.6344 33.2792C52.8137 30.9205 53.8905 29.5873 54.8135 29.3822C55.275 29.2797 55.4801 29.4848 55.5314 29.4848C55.6339 29.5873 55.6339 29.6899 55.5826 29.7924C55.4801 29.895 55.3775 29.895 55.275 29.8437C55.275 29.8437 55.1211 29.7924 54.916 29.8437C54.4546 29.9463 53.4803 30.6129 52.0959 33.4843C52.0446 33.5356 51.942 33.5869 51.8395 33.5869Z" fill="#E47B65"/>
<path d="M19.8435 33.5864C19.7409 33.5864 19.6896 33.5351 19.6384 33.4325C18.2026 30.5098 17.2284 29.8945 16.7669 29.792C16.5618 29.7407 16.4593 29.792 16.4593 29.792C16.3567 29.8945 16.2029 29.8432 16.1516 29.7407C16.0491 29.6381 16.1003 29.4843 16.2029 29.433C16.2542 29.433 16.4593 29.2279 16.9207 29.3305C17.8437 29.5356 18.9205 30.8688 20.0998 33.2274C20.1511 33.33 20.0998 33.4838 19.9973 33.5351C19.946 33.5351 19.8947 33.5864 19.8435 33.5864Z" fill="#E47B65"/>
<path d="M28.6122 31.4839C28.6122 33.5349 27.1252 35.1757 25.2792 35.1757C23.4333 35.1757 21.9463 33.5349 21.9463 31.4839C21.9463 29.4328 23.4333 27.792 25.2792 27.792C27.1252 27.792 28.6122 29.4328 28.6122 31.4839Z" fill="#FF8F71"/>
<path d="M49.7381 31.4839C49.7381 33.5349 48.2511 35.1757 46.4052 35.1757C44.5593 35.1757 43.0723 33.5349 43.0723 31.4839C43.0723 29.4328 44.5593 27.792 46.4052 27.792C48.2511 27.792 49.7381 29.4328 49.7381 31.4839Z" fill="#FF8F71"/>
<path d="M54.0455 21.844C54.0455 21.8953 54.0455 21.9465 54.0455 21.9978V22.1517L53.9429 24.2027V24.5103L53.7891 27.0741H53.7378C53.6865 27.0741 53.6352 27.0741 53.5327 27.0741C53.4814 27.0741 53.4301 27.0741 53.3789 27.1254C53.3276 27.1254 53.2763 27.1254 53.225 27.1767C53.1738 27.1767 53.1225 27.228 53.0712 27.228C52.9687 27.2792 52.9174 27.2792 52.8148 27.3305C52.7636 27.3305 52.7636 27.3818 52.7123 27.3818C52.661 27.4331 52.6097 27.4331 52.5585 27.4844C52.5585 27.4844 52.5585 27.4844 52.5072 27.4844C52.4559 27.5356 52.4046 27.5869 52.3021 27.5869C52.1995 27.6382 52.1482 27.6895 52.097 27.792C52.0457 27.8433 51.9944 27.8946 51.9431 27.9458L51.8919 27.9971C51.8406 28.0484 51.7893 28.0997 51.738 28.1509C51.6355 28.2535 51.5842 28.4073 51.4817 28.5099C51.4304 28.5611 51.4304 28.6124 51.3791 28.6637C51.3791 28.6637 51.3791 28.715 51.3278 28.715C51.2766 28.7663 51.2766 28.8175 51.2253 28.8688V28.9201V28.9714L51.174 29.0226C51.174 29.0226 49.8921 27.8433 49.5332 25.741C49.5332 25.4333 49.4819 25.1257 49.4819 24.818C49.4819 24.7667 49.4819 24.7154 49.4819 24.6129C49.4819 24.5103 49.4819 24.4078 49.4306 24.3052C49.3793 23.5874 49.2768 22.8695 49.123 22.2029C49.123 22.1004 49.0717 21.9978 49.0717 21.8953C48.9691 21.28 48.8153 20.7159 48.6615 20.2032C48.6615 20.1006 48.6102 19.9981 48.5589 19.8955C48.3538 19.2802 48.1487 18.6649 47.8923 18.1009C47.8411 17.9983 47.8411 17.947 47.7898 17.8445C47.4821 17.1779 47.0719 16.5113 46.6104 15.9473C46.5592 15.896 46.5079 15.7934 46.4566 15.7422C45.9951 15.1781 45.4824 14.6654 44.9183 14.2552C44.8671 14.2039 44.8158 14.2039 44.7645 14.1526C42.7135 12.6656 39.842 11.7939 35.7399 11.7939C31.843 11.7939 29.0228 12.6143 26.9717 14.0501C26.9205 14.1013 26.8692 14.1013 26.8179 14.1526C26.2026 14.6141 25.6899 15.0756 25.2284 15.6396C25.1771 15.6909 25.1258 15.7934 25.0233 15.8447C24.5618 16.4087 24.1516 17.0753 23.8439 17.7419C23.7926 17.8445 23.7414 17.8957 23.7414 17.9983C23.485 18.5623 23.2286 19.1776 23.0748 19.793C23.0235 19.8955 23.0235 19.9981 22.9722 20.1006C22.8184 20.6646 22.6646 21.2287 22.562 21.7927C22.562 21.8953 22.5107 21.9978 22.5107 22.1004C22.4082 22.767 22.3056 23.4848 22.2031 24.2027C22.2031 24.3052 22.1518 24.4078 22.1518 24.5103C22.1518 24.6129 22.1518 24.6642 22.1518 24.7667H22.1005C22.1005 24.7667 21.4339 27.9971 20.4084 28.9201C20.3572 28.8688 20.2546 28.6124 20.1008 28.356C20.0495 28.3048 20.0495 28.2535 19.9982 28.2022C19.9982 28.2022 19.9982 28.2022 19.9469 28.1509C19.8957 28.0997 19.8444 28.0484 19.7931 27.9458C19.7931 27.8946 19.7418 27.8946 19.7418 27.8946C19.6906 27.8433 19.6393 27.792 19.588 27.7407C19.5367 27.7407 19.4855 27.7407 19.4855 27.6895C19.4342 27.6382 19.3829 27.6382 19.3316 27.5869C19.2291 27.5356 19.1265 27.4331 19.024 27.3818C18.9727 27.3305 18.9214 27.3305 18.8701 27.2792C18.8189 27.2792 18.7676 27.228 18.7676 27.228C18.7163 27.228 18.665 27.1767 18.6138 27.1767C18.4599 27.1254 18.3061 27.0741 18.1523 27.0741C18.101 27.0741 17.9985 27.0741 17.9472 27.0741L17.7934 24.5616V24.254L17.6908 22.2029V21.9978C17.6908 21.9465 17.6908 21.9465 17.6908 21.8953C17.6395 21.3312 17.6395 20.7159 17.6908 20.1519C17.6908 20.0493 17.6908 19.9981 17.6908 19.8955C17.6908 19.8442 17.6908 19.793 17.6908 19.7417C17.7421 19.1264 17.8446 18.5111 17.9472 17.8957C17.9472 17.7932 17.9985 17.6906 17.9985 17.5881C18.1523 16.9728 18.3061 16.3575 18.5625 15.7422C18.6138 15.6396 18.6138 15.5371 18.665 15.4858C18.9214 14.8192 19.2291 14.2039 19.5367 13.5373C19.588 13.4347 19.6393 13.3322 19.6906 13.2296C22.7671 7.89693 28.8177 4.30762 35.7912 4.30762C42.7647 4.30762 48.8153 7.89694 51.8919 13.1784C51.9431 13.2809 51.9944 13.3835 52.097 13.5373C52.4559 14.1526 52.7123 14.7679 52.9687 15.4345C53.0199 15.5371 53.0199 15.6396 53.0712 15.7422C53.2763 16.3575 53.4814 16.9728 53.6352 17.5881C53.6865 17.6906 53.6865 17.7932 53.6865 17.8957C53.8404 18.5111 53.8916 19.1264 53.9942 19.793V19.8442C53.9942 19.9468 53.9942 20.0493 53.9942 20.1519C54.0967 20.7159 54.0967 21.28 54.0455 21.844Z" fill="#891F43"/>
<path d="M25.792 23.7922C25.792 23.7922 31.0221 23.4846 33.0219 22.1001C33.0219 22.1001 32.7142 20.6644 31.176 20.767C29.5864 20.8695 27.3303 22.254 25.792 23.7922Z" fill="#75173B"/>
<path d="M34.3033 31.9455C34.3033 31.9455 34.252 31.9455 34.3033 31.9455C34.1494 31.9455 34.0469 31.7916 34.0469 31.6891C34.2007 30.3559 34.3545 28.7663 34.4058 27.1255C34.4058 26.9717 34.5084 26.9204 34.6622 26.8691C34.816 26.8691 34.9186 26.9717 34.9186 27.1255C34.9186 28.7663 34.7135 30.3559 34.5596 31.7404C34.5084 31.8429 34.4058 31.9455 34.3033 31.9455Z" fill="#762B32"/>
<path d="M34.4578 25.6382C34.3552 25.6382 34.2527 25.5869 34.2527 25.4331C34.0476 24.5101 33.6374 23.5872 33.1246 22.6129C33.0733 22.5104 33.1246 22.3565 33.2272 22.3053C33.3297 22.254 33.4835 22.3053 33.5348 22.4078C34.0989 23.3821 34.5091 24.4076 34.7142 25.3306C34.7654 25.4331 34.6629 25.5869 34.5603 25.6382C34.5091 25.6382 34.5091 25.6382 34.4578 25.6382Z" fill="#762B32"/>
<path d="M29.9963 27.9964C30.7326 27.9964 31.3294 27.3995 31.3294 26.6633C31.3294 25.927 30.7326 25.3301 29.9963 25.3301C29.26 25.3301 28.6631 25.927 28.6631 26.6633C28.6631 27.3995 29.26 27.9964 29.9963 27.9964Z" fill="#632129"/>
<path d="M45.892 23.7922C45.892 23.7922 40.6619 23.4846 38.6621 22.1001C38.6621 22.1001 38.9698 20.6644 40.508 20.767C42.1489 20.8695 44.405 22.254 45.892 23.7922Z" fill="#75173B"/>
<path d="M41.6867 27.9964C42.423 27.9964 43.0199 27.3995 43.0199 26.6633C43.0199 25.927 42.423 25.3301 41.6867 25.3301C40.9504 25.3301 40.3535 25.927 40.3535 26.6633C40.3535 27.3995 40.9504 27.9964 41.6867 27.9964Z" fill="#632129"/>
<path d="M27.0737 14.1019C27.0224 14.1531 26.9711 14.1531 26.9199 14.2044C26.4071 14.0506 25.8431 13.8968 25.279 13.7942C24.3048 13.5891 23.2793 13.4353 22.2538 13.4353C21.3308 13.384 20.4591 13.4353 19.5361 13.5891C19.5874 13.4866 19.6387 13.384 19.69 13.2815C20.5104 13.1276 21.3821 13.0764 22.2538 13.1276C23.2793 13.1789 24.3048 13.2815 25.3303 13.5891C25.9456 13.6917 26.5097 13.8455 27.0737 14.1019Z" fill="#75173B"/>
<path d="M25.3304 15.6918C25.2792 15.7431 25.2279 15.8457 25.1253 15.8969C25.0741 15.8969 25.0228 15.8969 24.9715 15.8457C23.9973 15.6406 22.9718 15.4867 21.9462 15.4867C20.9207 15.4355 19.9465 15.4867 18.921 15.6918C18.7671 15.6918 18.6646 15.7431 18.5107 15.7431C18.562 15.6406 18.562 15.538 18.6133 15.4867C18.7158 15.4867 18.7671 15.4355 18.8697 15.4355C19.8952 15.2304 20.9207 15.1278 21.9462 15.1791C22.9718 15.2304 23.9973 15.3329 25.0228 15.6406C25.1253 15.6406 25.2279 15.6918 25.3304 15.6918Z" fill="#75173B"/>
<path d="M23.9456 17.7945C23.8943 17.897 23.843 17.9483 23.843 18.0509C22.8688 17.8458 21.8945 17.7432 20.9203 17.7432C19.9461 17.6919 18.9205 17.7432 17.9463 17.897C17.9463 17.7945 17.9976 17.6919 17.9976 17.5894C18.9718 17.3843 19.9461 17.333 20.9203 17.333C21.9458 17.4356 22.9713 17.5381 23.9456 17.7945Z" fill="#75173B"/>
<path d="M23.1252 19.8451C23.0739 19.9477 23.0739 20.0502 23.0226 20.1528C22.3048 20.0502 21.6382 19.999 20.9203 19.9477C19.8948 19.8964 18.9206 19.9477 17.8951 20.1528C17.7925 20.1528 17.7412 20.1528 17.6387 20.2041C17.6387 20.1015 17.6387 20.0502 17.6387 19.9477C17.6899 19.9477 17.7412 19.8964 17.7925 19.8964C18.818 19.6913 19.8435 19.5887 20.8691 19.64C21.6382 19.64 22.4073 19.6913 23.1252 19.8451Z" fill="#75173B"/>
<path d="M22.6129 21.8438C22.6129 21.9463 22.5616 22.0489 22.5616 22.1514C21.9463 22.0489 21.331 21.9976 20.7157 21.9976C19.6902 21.9463 18.7159 21.9976 17.6904 22.2027V21.9976C17.6904 21.9463 17.6904 21.9463 17.6904 21.8951C18.6647 21.6899 19.6902 21.6387 20.7157 21.6387C21.331 21.6899 21.9463 21.7412 22.6129 21.8438Z" fill="#75173B"/>
<path d="M22.2022 24.2539C22.2022 24.3565 22.1509 24.459 22.1509 24.5616C21.5356 24.459 20.9716 24.4078 20.3563 24.4078C19.4846 24.3565 18.6129 24.4078 17.7412 24.5616V24.2539C18.6129 24.1001 19.4846 24.0488 20.3563 24.0488C21.0229 24.1001 21.6382 24.1514 22.2022 24.2539Z" fill="#75173B"/>
<path d="M52.1474 13.5372C51.3783 13.4346 50.6091 13.4346 49.84 13.4346C48.8145 13.4346 47.8402 13.5884 46.8147 13.7936C46.1994 13.8961 45.5841 14.1012 45.02 14.255C44.9688 14.2038 44.9175 14.2038 44.8662 14.1525C45.4815 13.8961 46.0968 13.691 46.7634 13.4859C47.7377 13.2295 48.7632 13.0757 49.84 13.0244C50.5578 13.0244 51.2757 13.0244 51.9936 13.127C51.9936 13.2808 52.0448 13.4346 52.1474 13.5372Z" fill="#75173B"/>
<path d="M53.1219 15.7418C52.0964 15.5879 51.1222 15.5367 50.0966 15.5367C49.0711 15.5367 48.0969 15.6905 47.0714 15.8956C46.9688 15.9469 46.815 15.9469 46.7124 15.9981C46.6611 15.9469 46.6099 15.8443 46.5586 15.793C46.7124 15.7418 46.8662 15.6905 47.0714 15.6392C48.0456 15.3828 49.0711 15.229 50.1479 15.1777C51.1222 15.1777 52.0964 15.229 53.0706 15.4341C53.0706 15.5367 53.0706 15.6392 53.1219 15.7418Z" fill="#75173B"/>
<path d="M53.7361 17.8443C52.8644 17.7417 52.044 17.6905 51.1723 17.7417C50.1468 17.7417 49.1725 17.8956 48.147 18.1007C48.0957 18.1007 48.0445 18.1007 47.9932 18.152C47.9419 18.0494 47.9419 17.9981 47.8906 17.8956C47.9419 17.8956 48.0445 17.8443 48.0957 17.8443C49.07 17.5879 50.0955 17.4341 51.1723 17.3828C51.9927 17.3828 52.8644 17.4341 53.6848 17.5366C53.6848 17.6392 53.7361 17.7417 53.7361 17.8443Z" fill="#75173B"/>
<path d="M54.0441 20.1007C53.0699 19.9468 52.0956 19.8955 51.1727 19.9468C50.3523 19.9468 49.5831 20.0494 48.7627 20.2032C48.7627 20.1007 48.7114 19.9981 48.6602 19.8955C49.4806 19.7417 50.301 19.6392 51.1727 19.5879C52.1469 19.5879 53.1212 19.6392 54.0441 19.8443C54.0441 19.9468 54.0441 20.0494 54.0441 20.1007Z" fill="#75173B"/>
<path d="M54.0446 21.8438C54.0446 21.8951 54.0446 21.9463 54.0446 21.9976V22.1514C53.1729 22.0489 52.3012 21.9976 51.3782 21.9976C50.6603 21.9976 49.9425 22.1002 49.1733 22.2027C49.1733 22.1002 49.1221 21.9976 49.1221 21.8951C49.8399 21.7412 50.6091 21.6899 51.3269 21.6387C52.3012 21.6387 53.1729 21.6899 54.0446 21.8438Z" fill="#75173B"/>
<path d="M53.942 24.2027V24.5103C53.2241 24.4078 52.455 24.4078 51.7371 24.4078C51.0192 24.4078 50.3014 24.5103 49.5835 24.6129C49.5835 24.5103 49.5835 24.4078 49.5322 24.3052C50.2501 24.1514 50.968 24.1001 51.6858 24.0488C52.4037 24.0488 53.1728 24.1001 53.942 24.2027Z" fill="#75173B"/>
<path d="M41.1742 14.8708C41.892 14.3068 42.8663 14.2042 43.7892 14.0504C45.5326 13.794 47.276 13.1787 48.4554 11.8455C48.9681 11.2815 49.327 10.5124 49.0707 9.84578C49.0194 9.69195 48.9168 9.53812 48.8143 9.38429C48.6092 8.76898 49.0707 8.05112 49.686 7.74346C50.3013 7.4358 50.9679 7.33325 51.5832 6.97432C51.8908 6.82049 52.1985 6.51284 52.4036 6.20518C51.9421 6.10263 51.3268 6.10263 50.5064 6.25646C48.9168 6.51284 46.712 6.05135 44.5584 5.38477C44.5071 5.38477 44.4558 5.43604 44.4558 5.43604C43.7892 5.58987 43.1227 5.48732 42.4561 5.58987C41.7895 5.7437 41.1229 6.20518 41.1229 6.92304C41.1229 7.07687 41.1742 7.28198 41.2254 7.4358C41.2767 8.15367 40.7127 8.82026 40.0461 9.17919C38.5591 10.0509 36.6619 10.1534 34.9185 9.89705C33.9955 9.74322 33.0213 9.53812 32.2009 9.89705C31.2779 10.256 30.6626 11.1277 30.4062 12.0506C30.2011 12.666 30.1498 13.3325 30.2011 13.9991C32.5598 15.3323 35.6876 16.7168 40.1486 17.7936H40.1999C40.1999 17.691 40.1999 17.5884 40.1999 17.4859C40.0974 16.4604 40.405 15.4349 41.1742 14.8708Z" fill="#932753"/>
<path d="M30.3549 11.9991C30.6626 11.0761 31.2779 10.2044 32.1496 9.84546C33.0213 9.5378 33.9955 9.74291 34.8672 9.84546C36.6106 10.1018 38.4565 10.0506 39.9948 9.1276C40.6101 8.76866 41.2255 8.10208 41.1742 7.38421C41.1742 7.23039 41.1229 7.02528 41.0716 6.87145C41.0203 6.20487 41.7382 5.69211 42.4048 5.53828C43.0714 5.38445 43.738 5.487 44.4046 5.38445C44.4558 5.38445 44.5071 5.33318 44.5071 5.33318C41.7382 4.46148 39.0719 3.23086 38.0463 2.76938C36.2004 1.89769 30.8164 -1.17887 25.7401 0.410682C20.6638 2.00024 22.0995 9.94801 22.0995 9.94801C24.612 10.2044 26.5605 11.9478 30.0473 13.8963C30.0986 13.3322 30.1498 12.6144 30.3549 11.9991Z" fill="#75173B"/>
<path d="M55.3774 12.8705C58.095 8.05052 54.0442 7.99924 54.0442 7.99924C54.0442 7.99924 54.0442 6.56352 52.3521 6.25586C52.147 6.56352 51.8394 6.8199 51.5317 7.025C50.9164 7.33265 50.2498 7.43521 49.6345 7.79414C49.0192 8.10179 48.5577 8.81966 48.7628 9.43497C48.8141 9.5888 48.9166 9.74262 49.0192 9.89645C49.3268 10.563 48.9166 11.3322 48.4039 11.8962C47.2245 13.1781 45.4812 13.7934 43.7378 14.1011C42.8148 14.2549 41.8406 14.3575 41.1227 14.9215C40.3536 15.5368 40.0459 16.5623 40.0459 17.5366C40.0459 17.6391 40.0459 17.7417 40.0459 17.8442C45.9939 19.2287 48.9166 17.4853 50.3524 15.5881C51.8394 16.1008 53.5315 16.3572 54.6595 15.6394C57.2233 13.896 55.3774 12.8705 55.3774 12.8705Z" fill="#75173B"/>
<path d="M46.147 42.8154C44.7625 49.2249 36.5071 50.1479 35.5329 50.2504H35.4816H35.4303C34.5073 50.1479 26.2006 49.2762 24.8674 42.8154C23.5343 36.611 24.1496 34.7651 24.1496 34.7651C24.1496 34.7651 28.8157 31.3296 35.4303 31.2783H35.5329C42.1475 31.3296 46.8136 34.7651 46.8136 34.7651C46.8136 34.7651 47.4802 36.611 46.147 42.8154Z" fill="#DFF7F6"/>
<path d="M26.8164 36.8164C27.483 37.2266 28.2009 37.5343 28.97 37.8419C29.6879 38.1496 30.457 38.3547 31.2261 38.5598C32.7644 38.9187 34.3027 39.1238 35.841 39.1238C37.3793 39.1238 38.9688 38.9187 40.4558 38.5085C41.225 38.3034 41.9428 38.0983 42.712 37.7906C43.4298 37.5343 44.1477 37.1753 44.8655 36.8164C43.5836 37.7394 42.0966 38.406 40.5584 38.8674C39.0201 39.3289 37.4305 39.5853 35.841 39.5853C34.2514 39.5853 32.6106 39.3802 31.1236 38.8674C29.5853 38.406 28.0983 37.7394 26.8164 36.8164Z" fill="#BFE0DD"/>
<path d="M26.8164 39.3286C27.483 39.7901 28.2009 40.2003 28.9187 40.508C29.6366 40.8669 30.4057 41.1746 31.1236 41.3797C32.6619 41.8411 34.2514 42.0975 35.841 42.0975C37.4305 42.0975 39.0201 41.8411 40.5071 41.3284C41.2762 41.072 41.9941 40.8156 42.7632 40.4567C43.4811 40.149 44.199 39.7388 44.8655 39.2773C43.6349 40.3541 42.1992 41.1233 40.6609 41.6873C39.1226 42.3026 37.4818 42.559 35.841 42.6103C34.2001 42.6103 32.5593 42.3026 31.021 41.7386C29.4828 41.2258 28.047 40.4567 26.8164 39.3286Z" fill="#BFE0DD"/>
<path d="M26.8164 41.6875C27.483 42.2003 28.1496 42.713 28.8674 43.072C29.5853 43.4822 30.3032 43.8411 31.0723 44.1487C31.8415 44.4564 32.6106 44.6615 33.431 44.8153C34.2514 44.9692 35.0206 45.0204 35.841 45.0204C37.4818 45.0204 39.0714 44.6615 40.6096 44.0975C42.1479 43.4822 43.5836 42.713 44.8655 41.6875C43.6862 42.8668 42.3017 43.8411 40.7635 44.5077C39.2252 45.2255 37.5331 45.5845 35.841 45.6357C34.1489 45.6357 32.4568 45.2768 30.9185 44.559C29.3802 43.8924 27.9445 42.9181 26.8164 41.6875Z" fill="#BFE0DD"/>
<path d="M25.1247 35.4318C25.0734 35.4318 25.0734 35.4318 25.0222 35.4318C20.8175 33.791 19.7407 28.0993 19.6895 27.843C19.6895 27.7404 19.7407 27.5866 19.8946 27.5866C19.9971 27.5353 20.1509 27.6379 20.1509 27.7917C20.1509 27.843 21.2277 33.4833 25.176 35.0216C25.2785 35.0729 25.3811 35.2267 25.3298 35.3293C25.2785 35.3805 25.176 35.4318 25.1247 35.4318Z" fill="#0B1341"/>
<path d="M46.251 35.4318C46.3022 35.4318 46.3022 35.4318 46.3535 35.4318C50.5582 33.791 51.635 28.0993 51.6862 27.843C51.6862 27.7404 51.635 27.5866 51.4811 27.5866C51.3786 27.5353 51.2248 27.6379 51.2248 27.7917C51.2248 27.843 50.148 33.4833 46.1997 35.0216C46.0971 35.0729 45.9946 35.2267 46.0459 35.3293C46.0971 35.3805 46.1484 35.4318 46.251 35.4318Z" fill="#0B1341"/>
</g>
<defs>
<clipPath id="clip0">
<rect width="72" height="72" fill="white"/>
</clipPath>
</defs>
</svg>
